# xmcd
#
# Track frame offsets: 
#        150
#        10070
#        22640
#        31996
#        43095
#        52501
#        64765
#        73080
#        80970
#        95774
#        108613
#        118059
#        125777
#        134892
#        146415
#        156883
#
# Disc length: 2281 seconds
#
# Revision: 0
# Processed by: cddbd v1.5.2PL0 Copyright (c) Steve Scherf et al.
# Submitted via: ExactAudioCopy v0.99pb4
#
DISCID=e408e710
DTITLE=Johnny Cash - The Legendary Performance
DYEAR=2008
DGENRE=Country
TTITLE0=It Was Jesus
TTITLE1=Suppertime
TTITLE2=All Over Again
TTITLE3=Give My Love To Rose
TTITLE4=Pickin' Time
TTITLE5=I Was There When It Happened
TTITLE6=Five Feet High And Rising
TTITLE7=Big River
TTITLE8=God Has My Fortune Laid Away
TTITLE9=Heartbreak Hotel
TTITLE10=I Got Stripes
TTITLE11=Guess Things Happen That Way
TTITLE12=Ways Of A Woman In Love
TTITLE13=You're The Nearest Thing To Heaven
TTITLE14=Frankie and Johnny
TTITLE15=Don't Take Your Guns To Town
EXTD=
EXTT0=
EXTT1=
EXTT2=
EXTT3=
EXTT4=
EXTT5=
EXTT6=
EXTT7=
EXTT8=
EXTT9=
EXTT10=
EXTT11=
EXTT12=
EXTT13=
EXTT14=
EXTT15=
PLAYORDER=
